<svg width="135" height="37" viewBox="0 0 135 37" fill="none" xmlns="http://www.w3.org/2000/svg">
<path d="M36.2515 18.0126C36.2759 21.1792 35.4662 24.2965 33.9038 27.0509C33.7015 27.4087 33.4872 27.7587 33.2609 28.1009C33.149 28.2748 33.0037 28.4248 32.8334 28.5422C32.6631 28.6595 32.4712 28.7419 32.2689 28.7845C32.0665 28.8271 31.8577 28.8292 31.6545 28.7905C31.4514 28.7518 31.2579 28.6732 31.0854 28.5592C30.9129 28.4452 30.7647 28.298 30.6494 28.1263C30.5342 27.9546 30.4542 27.7617 30.414 27.5589C30.3739 27.356 30.3744 27.1472 30.4156 26.9445C30.4567 26.7419 30.5377 26.5494 30.6538 26.3783C32.145 24.1147 32.995 21.4894 33.1134 18.7814C33.2319 16.0734 32.6144 13.3839 31.3266 10.9988C30.0387 8.6137 28.1287 6.62211 25.7995 5.23572C23.4703 3.84933 20.809 3.11996 18.0984 3.12513C12.8882 3.13529 8.26869 5.87044 5.58353 9.95716C3.97835 12.3953 3.12418 15.251 3.12696 18.1701C3.12974 21.0891 3.98934 23.9432 5.59915 26.3783C5.82739 26.7242 5.90885 27.1466 5.82563 27.5526C5.74241 27.9586 5.50133 28.3149 5.1554 28.5431C4.80948 28.7713 4.38707 28.8528 3.98108 28.7696C3.57509 28.6864 3.21879 28.4453 2.99056 28.0993C1.20556 25.3905 0.180274 22.2523 0.0216775 19.0121C-0.136919 15.7719 0.576991 12.5485 2.08891 9.67829C3.60083 6.80809 5.85535 4.39625 8.61721 2.69444C11.3791 0.992641 14.547 0.0632518 17.7906 0.00325504C17.9046 0.00091129 18.0179 0.000129968 18.1312 0.000129968C22.9213 -0.00973674 27.5197 1.8814 30.917 5.25844C34.3142 8.63549 36.2328 13.2225 36.2515 18.0126V18.0126Z" fill="white"/>
<path d="M7.19239 20.9194L10.0243 35.0069C10.1943 35.8526 11.0176 36.4003 11.8633 36.2303C12.709 36.0603 13.2568 35.237 13.0868 34.3913L10.2549 20.3038C10.0849 19.4581 9.26151 18.9104 8.41583 19.0804C7.57014 19.2504 7.02239 20.0737 7.19239 20.9194Z" fill="white"/>
<path d="M9.97026 34.6891L9.25229 34.8336C8.18546 35.0484 7.07687 34.8475 6.15325 34.272C5.22964 33.6965 4.5608 32.7899 4.28354 31.7375C4.26245 31.6563 4.24292 31.575 4.22651 31.4922L3.1976 26.3805C2.97463 25.2709 3.20133 24.1181 3.82789 23.1756C4.45444 22.2331 5.42958 21.5778 6.53901 21.3539L7.25698 21.2094L8.51636 27.4657L9.97026 34.6891Z" fill="white"/>
<path d="M9.97026 34.6891L9.25229 34.8337C8.18546 35.0485 7.07686 34.8476 6.15325 34.272C5.22964 33.6965 4.5608 32.7899 4.28354 31.7376C5.80092 30.4232 7.21595 28.9951 8.51635 27.4657L9.97026 34.6891Z" fill="white"/>
<path d="M34.2742 25.2126L33.9038 27.0508C33.7015 27.4086 33.4872 27.7586 33.2609 28.1008C33.149 28.2748 33.0037 28.4247 32.8334 28.5421C32.6631 28.6594 32.4712 28.7418 32.2689 28.7844C32.0665 28.8271 31.8577 28.8291 31.6545 28.7904C31.4514 28.7517 31.2579 28.6731 31.0854 28.5591C30.9129 28.4451 30.7647 28.298 30.6494 28.1263C30.5342 27.9545 30.4542 27.7617 30.414 27.5588C30.3739 27.3559 30.3744 27.1471 30.4156 26.9444C30.4567 26.7418 30.5377 26.5493 30.6538 26.3782C31.713 24.7753 32.4523 22.9828 32.8312 21.0993C33.4192 21.5919 33.8636 22.2339 34.1175 22.9578C34.3715 23.6816 34.4256 24.4605 34.2742 25.2126Z" fill="white"/>
<path d="M32.4218 6.95473L30.1804 9.19614C28.7838 7.30753 26.9625 5.77394 24.8636 4.71929C22.7648 3.66465 20.4473 3.11852 18.0984 3.12505C12.8882 3.1352 8.2687 5.87036 5.58354 9.95708L3.3101 7.68364C4.94925 5.3544 7.11494 3.44487 9.63109 2.11029C12.1472 0.77572 14.9428 0.0537795 17.7906 0.00317046C17.9046 0.000826709 18.0179 4.53874e-05 18.1312 4.53874e-05C20.8857 -0.00612664 23.6051 0.617258 26.0818 1.82259C28.5586 3.02792 30.7271 4.78332 32.4218 6.95473V6.95473Z" fill="white"/>
<path d="M25.9728 20.2886L23.1409 34.3761C22.9709 35.2217 23.5186 36.0451 24.3643 36.2151C25.21 36.3851 26.0334 35.8374 26.2034 34.9917L29.0353 20.9042C29.2053 20.0585 28.6575 19.2351 27.8118 19.0651C26.9662 18.8951 26.1428 19.4429 25.9728 20.2886Z" fill="white"/>
<path d="M33.0554 26.3805L32.0265 31.4922C31.8031 32.6018 31.1482 33.5771 30.2056 34.2038C29.2631 34.8304 28.1103 35.057 27.0007 34.8336L26.2828 34.6891L27.0265 30.9961L28.996 21.2094L29.714 21.3539C30.8233 21.5781 31.7985 22.233 32.4257 23.175C32.5121 23.3049 32.5911 23.4395 32.6625 23.5782C33.1082 24.4404 33.2468 25.4289 33.0554 26.3805V26.3805Z" fill="white"/>
<path d="M33.0554 26.3805L32.0265 31.4922C31.8031 32.6018 31.1482 33.5772 30.2056 34.2038C29.2631 34.8304 28.1103 35.057 27.0007 34.8336L26.2828 34.6891L27.0265 30.9961C29.1668 28.7337 31.0564 26.2466 32.6625 23.5782C33.1082 24.4404 33.2468 25.4289 33.0554 26.3805V26.3805Z" fill="white"/>
<path d="M48.9375 27H52.8864V22.6818H55.0739C58.3906 22.6818 60.6136 20.7287 60.6136 17.5966C60.6136 14.5 58.4474 12.4545 55.2159 12.4545H48.9375V27ZM52.8864 19.6136V15.608H54.2784C55.6634 15.608 56.4943 16.3466 56.4943 17.5966C56.4943 18.8395 55.6634 19.6136 54.2784 19.6136H52.8864ZM78.1534 19.7273C78.1534 14.8693 75.0284 12.2557 71.0795 12.2557C67.1023 12.2557 64.0057 14.8693 64.0057 19.7273C64.0057 24.5568 67.1023 27.1989 71.0795 27.1989C75.0284 27.1989 78.1534 24.5852 78.1534 19.7273ZM74.0909 19.7273C74.0909 22.3409 73.0398 23.7614 71.0795 23.7614C69.1193 23.7614 68.0682 22.3409 68.0682 19.7273C68.0682 17.1136 69.1193 15.6932 71.0795 15.6932C73.0398 15.6932 74.0909 17.1136 74.0909 19.7273ZM87.5771 27C92.0089 27 94.8214 24.2727 94.8214 19.7273C94.8214 15.1818 92.0089 12.4545 87.5202 12.4545H81.9805V27H87.5771ZM85.9293 23.6477V15.8068H87.3214C89.5941 15.8068 90.8441 16.6875 90.8441 19.7273C90.8441 22.767 89.5941 23.6477 87.435 23.6477H85.9293ZM102.597 12.4545H98.6484V27H102.597V12.4545ZM106.469 27H110.418V21.3182H116.071V18.1364H110.418V15.6364H116.696V12.4545H106.469V27ZM119.552 12.4545L124.893 22.4261V27H128.813V22.4261L134.154 12.4545H129.751L126.91 18.3636H126.796L123.955 12.4545H119.552Z" fill="white"/>
</svg>
